<svg width="20" height="20" viewBox="0 0 20 20" fill="none" xmlns="http://www.w3.org/2000/svg">
<path d="M6.24512 3.55835L13.7451 7.85002" stroke="#09090B" stroke-width="1.66667" stroke-linecap="round" stroke-linejoin="round"/>
<path d="M17.4951 6.66663C17.4948 6.37435 17.4177 6.0873 17.2714 5.83426C17.1251 5.58122 16.9149 5.37109 16.6618 5.22496L10.8285 1.89163C10.5751 1.74535 10.2877 1.66833 9.99512 1.66833C9.70256 1.66833 9.41515 1.74535 9.16178 1.89163L3.32845 5.22496C3.07534 5.37109 2.8651 5.58122 2.71884 5.83426C2.57257 6.0873 2.49542 6.37435 2.49512 6.66663V13.3333C2.49542 13.6256 2.57257 13.9126 2.71884 14.1657C2.8651 14.4187 3.07534 14.6288 3.32845 14.775L9.16178 18.1083C9.41515 18.2546 9.70256 18.3316 9.99512 18.3316C10.2877 18.3316 10.5751 18.2546 10.8285 18.1083L16.6618 14.775C16.9149 14.6288 17.1251 14.4187 17.2714 14.1657C17.4177 13.9126 17.4948 13.6256 17.4951 13.3333V6.66663Z" stroke="#09090B" stroke-width="1.66667" stroke-linecap="round" stroke-linejoin="round"/>
<path d="M2.74512 5.83337L9.99512 10L17.2451 5.83337" stroke="#09090B" stroke-width="1.66667" stroke-linecap="round" stroke-linejoin="round"/>
<path d="M9.99512 18.3333V10" stroke="#09090B" stroke-width="1.66667" stroke-linecap="round" stroke-linejoin="round"/>
</svg>
