<svg width="25" height="25" viewBox="0 0 25 25" fill="none" xmlns="http://www.w3.org/2000/svg">
<path d="M4.83002 17.25C3.33002 18.51 2.83002 22.25 2.83002 22.25C2.83002 22.25 6.57002 21.75 7.83002 20.25C8.54002 19.41 8.53002 18.12 7.74002 17.34C7.35132 16.969 6.83931 16.7547 6.30224 16.738C5.76518 16.7214 5.24089 16.9038 4.83002 17.25Z" stroke="#09090B" stroke-width="2" stroke-linecap="round" stroke-linejoin="round"/>
<path d="M12.33 15.75L9.33002 12.75C9.86216 11.3694 10.5322 10.0461 11.33 8.8C12.4952 6.93699 14.1176 5.40305 16.043 4.3441C17.9684 3.28514 20.1327 2.73637 22.33 2.75C22.33 5.47 21.55 10.25 16.33 13.75C15.0669 14.5487 13.7269 15.2187 12.33 15.75Z" stroke="#09090B" stroke-width="2" stroke-linecap="round" stroke-linejoin="round"/>
<path d="M9.33002 12.75H4.33002C4.33002 12.75 4.88002 9.72002 6.33002 8.75002C7.95002 7.67002 11.33 8.75002 11.33 8.75002" stroke="#09090B" stroke-width="2" stroke-linecap="round" stroke-linejoin="round"/>
<path d="M12.33 15.75V20.75C12.33 20.75 15.36 20.2 16.33 18.75C17.41 17.13 16.33 13.75 16.33 13.75" stroke="#09090B" stroke-width="2" stroke-linecap="round" stroke-linejoin="round"/>
</svg>
