<svg width="25" height="25" viewBox="0 0 25 25" fill="none" xmlns="http://www.w3.org/2000/svg">
<path d="M4.66001 14.75C4.47078 14.7506 4.28524 14.6976 4.12496 14.597C3.96469 14.4964 3.83625 14.3523 3.75456 14.1816C3.67288 14.0109 3.6413 13.8206 3.66351 13.6326C3.68572 13.4447 3.76079 13.2669 3.88001 13.12L13.78 2.91998C13.8543 2.83426 13.9555 2.77634 14.067 2.75571C14.1785 2.73509 14.2937 2.75299 14.3937 2.80648C14.4937 2.85998 14.5726 2.94588 14.6173 3.05009C14.6621 3.1543 14.6701 3.27063 14.64 3.37998L12.72 9.39998C12.6634 9.5515 12.6444 9.7145 12.6646 9.87499C12.6848 10.0355 12.7437 10.1887 12.8361 10.3214C12.9285 10.4542 13.0518 10.5625 13.1953 10.6371C13.3388 10.7118 13.4983 10.7505 13.66 10.75H20.66C20.8492 10.7493 21.0348 10.8024 21.1951 10.903C21.3553 11.0036 21.4838 11.1476 21.5655 11.3183C21.6471 11.489 21.6787 11.6794 21.6565 11.8673C21.6343 12.0553 21.5592 12.233 21.44 12.38L11.54 22.58C11.4657 22.6657 11.3646 22.7236 11.253 22.7442C11.1415 22.7649 11.0263 22.747 10.9263 22.6935C10.8263 22.64 10.7474 22.5541 10.7027 22.4499C10.6579 22.3457 10.6499 22.2293 10.68 22.12L12.6 16.1C12.6566 15.9485 12.6756 15.7855 12.6554 15.625C12.6352 15.4645 12.5764 15.3113 12.4839 15.1786C12.3915 15.0458 12.2682 14.9375 12.1247 14.8628C11.9812 14.7882 11.8218 14.7495 11.66 14.75H4.66001Z" stroke="#09090B" stroke-width="2" stroke-linecap="round" stroke-linejoin="round"/>
</svg>
