<svg width="17" height="16" viewBox="0 0 17 16" fill="none" xmlns="http://www.w3.org/2000/svg">
<path d="M2.17336 4.66671L5.11336 1.72671C5.2374 1.60193 5.38491 1.50293 5.54738 1.43543C5.70986 1.36792 5.88409 1.33324 6.06003 1.33337H11.62C11.796 1.33324 11.9702 1.36792 12.1327 1.43543C12.2951 1.50293 12.4427 1.60193 12.5667 1.72671L15.5067 4.66671" stroke="black" stroke-width="1.33333" stroke-linecap="round" stroke-linejoin="round"/>
<path d="M3.50669 8V13.3333C3.50669 13.687 3.64717 14.0261 3.89722 14.2761C4.14727 14.5262 4.4864 14.6667 4.84003 14.6667H12.84C13.1936 14.6667 13.5328 14.5262 13.7828 14.2761C14.0329 14.0261 14.1734 13.687 14.1734 13.3333V8" stroke="black" stroke-width="1.33333" stroke-linecap="round" stroke-linejoin="round"/>
<path d="M10.84 14.6666V12C10.84 11.6463 10.6996 11.3072 10.4495 11.0572C10.1995 10.8071 9.86032 10.6666 9.50669 10.6666H8.17336C7.81974 10.6666 7.4806 10.8071 7.23055 11.0572C6.9805 11.3072 6.84003 11.6463 6.84003 12V14.6666" stroke="black" stroke-width="1.33333" stroke-linecap="round" stroke-linejoin="round"/>
<path d="M2.17336 4.66663H15.5067" stroke="black" stroke-width="1.33333" stroke-linecap="round" stroke-linejoin="round"/>
<path d="M15.5067 4.66663V6.66663C15.5067 7.02025 15.3662 7.35939 15.1162 7.60943C14.8661 7.85948 14.527 7.99996 14.1734 7.99996C13.7839 7.97852 13.4118 7.83112 13.1134 7.57996C13.0338 7.52248 12.9382 7.49153 12.84 7.49153C12.7419 7.49153 12.6462 7.52248 12.5667 7.57996C12.2682 7.83112 11.8962 7.97852 11.5067 7.99996C11.1172 7.97852 10.7452 7.83112 10.4467 7.57996C10.3671 7.52248 10.2715 7.49153 10.1734 7.49153C10.0752 7.49153 9.97957 7.52248 9.90003 7.57996C9.60154 7.83112 9.22954 7.97852 8.84003 7.99996C8.45052 7.97852 8.07851 7.83112 7.78003 7.57996C7.70048 7.52248 7.60484 7.49153 7.50669 7.49153C7.40855 7.49153 7.31291 7.52248 7.23336 7.57996C6.93487 7.83112 6.56287 7.97852 6.17336 7.99996C5.78385 7.97852 5.41185 7.83112 5.11336 7.57996C5.03381 7.52248 4.93817 7.49153 4.84003 7.49153C4.74189 7.49153 4.64624 7.52248 4.56669 7.57996C4.26821 7.83112 3.8962 7.97852 3.50669 7.99996C3.15307 7.99996 2.81393 7.85948 2.56389 7.60943C2.31384 7.35939 2.17336 7.02025 2.17336 6.66663V4.66663" stroke="black" stroke-width="1.33333" stroke-linecap="round" stroke-linejoin="round"/>
</svg>
