<svg width="20" height="21" viewBox="0 0 20 21" fill="none" xmlns="http://www.w3.org/2000/svg">
<path d="M9.04897 3.17702C9.34897 2.25602 10.652 2.25602 10.951 3.17702L12.021 6.46902C12.0863 6.66951 12.2134 6.8442 12.384 6.96812C12.5547 7.09205 12.7601 7.15886 12.971 7.15902H16.433C17.402 7.15902 17.804 8.39902 17.021 8.96902L14.221 11.003C14.05 11.127 13.9227 11.302 13.8573 11.5029C13.7919 11.7037 13.7918 11.9201 13.857 12.121L14.927 15.413C15.227 16.334 14.172 17.101 13.387 16.531L10.587 14.497C10.4162 14.373 10.2105 14.3062 9.99947 14.3062C9.78842 14.3062 9.58277 14.373 9.41197 14.497L6.61197 16.531C5.82797 17.101 4.77397 16.334 5.07297 15.413L6.14297 12.121C6.20815 11.9201 6.20803 11.7037 6.14264 11.5029C6.07725 11.302 5.94994 11.127 5.77897 11.003L2.97997 8.97002C2.19697 8.40002 2.59997 7.16002 3.56797 7.16002H7.02897C7.24002 7.16007 7.44568 7.09336 7.6165 6.96942C7.78732 6.84548 7.91455 6.67067 7.97997 6.47002L9.04997 3.17802L9.04897 3.17702Z" fill="#D1D5DB"/>
</svg>
