<svg width="17" height="16" viewBox="0 0 17 16" fill="none" xmlns="http://www.w3.org/2000/svg">
<path d="M6.17336 14.6667C6.54155 14.6667 6.84002 14.3682 6.84002 14C6.84002 13.6319 6.54155 13.3334 6.17336 13.3334C5.80517 13.3334 5.50669 13.6319 5.50669 14C5.50669 14.3682 5.80517 14.6667 6.17336 14.6667Z" stroke="black" stroke-width="1.33333" stroke-linecap="round" stroke-linejoin="round"/>
<path d="M13.5067 14.6667C13.8749 14.6667 14.1734 14.3682 14.1734 14C14.1734 13.6319 13.8749 13.3334 13.5067 13.3334C13.1385 13.3334 12.84 13.6319 12.84 14C12.84 14.3682 13.1385 14.6667 13.5067 14.6667Z" stroke="black" stroke-width="1.33333" stroke-linecap="round" stroke-linejoin="round"/>
<path d="M2.2067 1.3667H3.54003L5.31336 9.6467C5.37841 9.94994 5.54714 10.221 5.7905 10.4133C6.03386 10.6055 6.33663 10.7069 6.6467 10.7H13.1667C13.4701 10.6995 13.7644 10.5956 14.0007 10.4053C14.2371 10.215 14.4015 9.94972 14.4667 9.65337L15.5667 4.70003H4.25336" stroke="black" stroke-width="1.33333" stroke-linecap="round" stroke-linejoin="round"/>
</svg>
